<svg id="visual" viewBox="0 0 900 600" width="900" height="600" xmlns="http://www.w3.org/2000/svg" xmlns:xlink="http://www.w3.org/1999/xlink" version="1.1"><rect x="0" y="0" width="900" height="600" fill="#6246ea"></rect><path d="M0 196L12.5 184.3C25 172.7 50 149.3 75 139.3C100 129.3 125 132.7 150 141.2C175 149.7 200 163.3 225 160.8C250 158.3 275 139.7 300 135C325 130.3 350 139.7 375 156.2C400 172.7 425 196.3 450 205.2C475 214 500 208 525 201.2C550 194.3 575 186.7 600 167C625 147.3 650 115.7 675 108C700 100.3 725 116.7 750 121.3C775 126 800 119 825 129.5C850 140 875 168 887.5 182L900 196L900 0L887.5 0C875 0 850 0 825 0C800 0 775 0 750 0C725 0 700 0 675 0C650 0 625 0 600 0C575 0 550 0 525 0C500 0 475 0 450 0C425 0 400 0 375 0C350 0 325 0 300 0C275 0 250 0 225 0C200 0 175 0 150 0C125 0 100 0 75 0C50 0 25 0 12.5 0L0 0Z" fill="#111d5e" stroke-linecap="round" stroke-linejoin="miter"></path></svg>